<mxfile host="app.diagrams.net" modified="2024-01-31T07:48:59.712Z" agent="Mozilla/5.0 (Macintosh; Intel Mac OS X 10_15_7) AppleWebKit/537.36 (KHTML, like Gecko) Chrome/120.0.0.0 Safari/537.36" version="21.6.5" etag="UkWqiIps-VoktIT0HP59" type="github">
  <diagram name="第 1 页" id="fCvJnqI7t7MI7N2AB8a4">
    <mxGraphModel>
      <root>
        <mxCell id="0" />
        <mxCell id="1" parent="0" />
      </root>
    </mxGraphModel>
  </diagram>
</mxfile>
